G04 #@! TF.GenerationSoftware,KiCad,Pcbnew,7.0.5-7.0.5~ubuntu20.04.1*
G04 #@! TF.CreationDate,2023-10-16T22:49:32-03:00*
G04 #@! TF.ProjectId,Iguana_V1,49677561-6e61-45f5-9631-2e6b69636164,rev?*
G04 #@! TF.SameCoordinates,Original*
G04 #@! TF.FileFunction,Paste,Bot*
G04 #@! TF.FilePolarity,Positive*
%FSLAX46Y46*%
G04 Gerber Fmt 4.6, Leading zero omitted, Abs format (unit mm)*
G04 Created by KiCad (PCBNEW 7.0.5-7.0.5~ubuntu20.04.1) date 2023-10-16 22:49:32*
%MOMM*%
%LPD*%
G01*
G04 APERTURE LIST*
G04 Aperture macros list*
%AMRoundRect*
0 Rectangle with rounded corners*
0 $1 Rounding radius*
0 $2 $3 $4 $5 $6 $7 $8 $9 X,Y pos of 4 corners*
0 Add a 4 corners polygon primitive as box body*
4,1,4,$2,$3,$4,$5,$6,$7,$8,$9,$2,$3,0*
0 Add four circle primitives for the rounded corners*
1,1,$1+$1,$2,$3*
1,1,$1+$1,$4,$5*
1,1,$1+$1,$6,$7*
1,1,$1+$1,$8,$9*
0 Add four rect primitives between the rounded corners*
20,1,$1+$1,$2,$3,$4,$5,0*
20,1,$1+$1,$4,$5,$6,$7,0*
20,1,$1+$1,$6,$7,$8,$9,0*
20,1,$1+$1,$8,$9,$2,$3,0*%
G04 Aperture macros list end*
%ADD10RoundRect,0.200000X0.275000X-0.200000X0.275000X0.200000X-0.275000X0.200000X-0.275000X-0.200000X0*%
%ADD11RoundRect,0.200000X0.200000X0.275000X-0.200000X0.275000X-0.200000X-0.275000X0.200000X-0.275000X0*%
%ADD12C,1.000000*%
%ADD13RoundRect,0.175000X0.175000X0.625000X-0.175000X0.625000X-0.175000X-0.625000X0.175000X-0.625000X0*%
%ADD14RoundRect,0.300000X0.300000X0.800000X-0.300000X0.800000X-0.300000X-0.800000X0.300000X-0.800000X0*%
%ADD15RoundRect,0.300000X0.300000X0.400000X-0.300000X0.400000X-0.300000X-0.400000X0.300000X-0.400000X0*%
%ADD16RoundRect,0.350000X0.450000X0.350000X-0.450000X0.350000X-0.450000X-0.350000X0.450000X-0.350000X0*%
%ADD17RoundRect,0.200000X-0.275000X0.200000X-0.275000X-0.200000X0.275000X-0.200000X0.275000X0.200000X0*%
%ADD18R,1.500000X0.650000*%
%ADD19R,2.700000X3.600000*%
%ADD20RoundRect,0.200000X-0.200000X-0.275000X0.200000X-0.275000X0.200000X0.275000X-0.200000X0.275000X0*%
%ADD21RoundRect,0.225000X-0.225000X-0.250000X0.225000X-0.250000X0.225000X0.250000X-0.225000X0.250000X0*%
%ADD22RoundRect,0.225000X-0.250000X0.225000X-0.250000X-0.225000X0.250000X-0.225000X0.250000X0.225000X0*%
%ADD23R,2.500000X1.000000*%
%ADD24RoundRect,0.250000X-0.475000X0.250000X-0.475000X-0.250000X0.475000X-0.250000X0.475000X0.250000X0*%
%ADD25RoundRect,0.150000X0.512500X0.150000X-0.512500X0.150000X-0.512500X-0.150000X0.512500X-0.150000X0*%
%ADD26RoundRect,0.150000X-0.150000X0.587500X-0.150000X-0.587500X0.150000X-0.587500X0.150000X0.587500X0*%
%ADD27RoundRect,0.250000X0.650000X-1.000000X0.650000X1.000000X-0.650000X1.000000X-0.650000X-1.000000X0*%
%ADD28R,3.300000X3.500000*%
%ADD29R,1.250000X0.900000*%
%ADD30RoundRect,0.250000X-0.250000X-0.475000X0.250000X-0.475000X0.250000X0.475000X-0.250000X0.475000X0*%
%ADD31R,0.500000X0.800000*%
%ADD32RoundRect,0.250000X0.250000X0.475000X-0.250000X0.475000X-0.250000X-0.475000X0.250000X-0.475000X0*%
%ADD33RoundRect,0.150000X-0.512500X-0.150000X0.512500X-0.150000X0.512500X0.150000X-0.512500X0.150000X0*%
%ADD34RoundRect,0.250000X-0.650000X1.000000X-0.650000X-1.000000X0.650000X-1.000000X0.650000X1.000000X0*%
%ADD35R,3.500000X2.950000*%
%ADD36RoundRect,0.150000X0.587500X0.150000X-0.587500X0.150000X-0.587500X-0.150000X0.587500X-0.150000X0*%
G04 APERTURE END LIST*
D10*
X145120000Y-50965000D03*
X145120000Y-49315000D03*
X143620000Y-50965000D03*
X143620000Y-49315000D03*
D11*
X129325000Y-55200000D03*
X127675000Y-55200000D03*
D12*
X139500000Y-36500000D03*
X147480000Y-36500000D03*
D13*
X146680000Y-47000000D03*
X145580000Y-47000000D03*
X144480000Y-47000000D03*
X143380000Y-47000000D03*
X142280000Y-47000000D03*
X141180000Y-47000000D03*
X140080000Y-47000000D03*
X138980000Y-47000000D03*
X137880000Y-47000000D03*
D14*
X136680000Y-36900000D03*
D15*
X136680000Y-46500000D03*
D16*
X151280000Y-46500000D03*
D14*
X152180000Y-36900000D03*
D17*
X101400000Y-70475000D03*
X101400000Y-72125000D03*
D11*
X107325000Y-71000000D03*
X105675000Y-71000000D03*
D18*
X110800000Y-57695000D03*
X110800000Y-58965000D03*
X110800000Y-60235000D03*
X110800000Y-61505000D03*
X105400000Y-61505000D03*
X105400000Y-60235000D03*
X105400000Y-58965000D03*
X105400000Y-57695000D03*
D19*
X108100000Y-59600000D03*
D17*
X130600000Y-44775000D03*
X130600000Y-46425000D03*
D20*
X149675000Y-66150000D03*
X151325000Y-66150000D03*
D10*
X149700000Y-74225000D03*
X149700000Y-72575000D03*
D21*
X149725000Y-67650000D03*
X151275000Y-67650000D03*
D22*
X136120000Y-49865000D03*
X136120000Y-51415000D03*
D17*
X99800000Y-70475000D03*
X99800000Y-72125000D03*
D23*
X109400000Y-46000000D03*
X109400000Y-44000000D03*
X109400000Y-42000000D03*
X109400000Y-40000000D03*
X109400000Y-38000000D03*
X109400000Y-36000000D03*
X109400000Y-34000000D03*
X109400000Y-32000000D03*
X127600000Y-32000000D03*
X127600000Y-34000000D03*
X127600000Y-36000000D03*
X127600000Y-38000000D03*
X127600000Y-40000000D03*
X127600000Y-42000000D03*
X127600000Y-44000000D03*
X127600000Y-46000000D03*
D24*
X130800000Y-35200000D03*
X130800000Y-37100000D03*
D22*
X106500000Y-72525000D03*
X106500000Y-74075000D03*
D24*
X138120000Y-49690000D03*
X138120000Y-51590000D03*
D25*
X111500000Y-67450000D03*
X111500000Y-68400000D03*
X111500000Y-69350000D03*
X109225000Y-69350000D03*
X109225000Y-68400000D03*
X109225000Y-67450000D03*
D10*
X104900000Y-74125000D03*
X104900000Y-72475000D03*
X148100000Y-74225000D03*
X148100000Y-72575000D03*
D26*
X146150000Y-64312500D03*
X148050000Y-64312500D03*
X147100000Y-66187500D03*
D27*
X121062500Y-69800000D03*
X121062500Y-65800000D03*
D28*
X134500000Y-77300000D03*
X134500000Y-61500000D03*
D10*
X140620000Y-50965000D03*
X140620000Y-49315000D03*
D29*
X109475000Y-71150000D03*
X113325000Y-71150000D03*
X109475000Y-72650000D03*
X113325000Y-72650000D03*
D30*
X106250000Y-63435000D03*
X108150000Y-63435000D03*
D31*
X147950000Y-69250000D03*
X148850000Y-69250000D03*
X149750000Y-69250000D03*
X150650000Y-69250000D03*
X150650000Y-70450000D03*
X149750000Y-70450000D03*
X148850000Y-70450000D03*
X147950000Y-70450000D03*
D32*
X117450000Y-51400000D03*
X115550000Y-51400000D03*
D30*
X112850000Y-61100000D03*
X114750000Y-61100000D03*
D33*
X127862500Y-60250000D03*
X127862500Y-59300000D03*
X127862500Y-58350000D03*
X130137500Y-58350000D03*
X130137500Y-59300000D03*
X130137500Y-60250000D03*
D32*
X121650000Y-51400000D03*
X119750000Y-51400000D03*
D25*
X106937500Y-67450000D03*
X106937500Y-68400000D03*
X106937500Y-69350000D03*
X104662500Y-69350000D03*
X104662500Y-68400000D03*
X104662500Y-67450000D03*
D10*
X142120000Y-50965000D03*
X142120000Y-49315000D03*
D34*
X117400000Y-55500000D03*
X117400000Y-59500000D03*
D20*
X127700000Y-56800000D03*
X129350000Y-56800000D03*
D35*
X123000000Y-54575000D03*
X123000000Y-60025000D03*
D11*
X114625000Y-59000000D03*
X112975000Y-59000000D03*
X118325000Y-66500000D03*
X116675000Y-66500000D03*
D36*
X117837500Y-68150000D03*
X117837500Y-70050000D03*
X115962500Y-69100000D03*
M02*
