G04 #@! TF.GenerationSoftware,KiCad,Pcbnew,7.0.5-7.0.5~ubuntu20.04.1*
G04 #@! TF.CreationDate,2023-10-16T22:49:33-03:00*
G04 #@! TF.ProjectId,Iguana_V1,49677561-6e61-45f5-9631-2e6b69636164,rev?*
G04 #@! TF.SameCoordinates,Original*
G04 #@! TF.FileFunction,Soldermask,Bot*
G04 #@! TF.FilePolarity,Negative*
%FSLAX46Y46*%
G04 Gerber Fmt 4.6, Leading zero omitted, Abs format (unit mm)*
G04 Created by KiCad (PCBNEW 7.0.5-7.0.5~ubuntu20.04.1) date 2023-10-16 22:49:33*
%MOMM*%
%LPD*%
G01*
G04 APERTURE LIST*
G04 Aperture macros list*
%AMRoundRect*
0 Rectangle with rounded corners*
0 $1 Rounding radius*
0 $2 $3 $4 $5 $6 $7 $8 $9 X,Y pos of 4 corners*
0 Add a 4 corners polygon primitive as box body*
4,1,4,$2,$3,$4,$5,$6,$7,$8,$9,$2,$3,0*
0 Add four circle primitives for the rounded corners*
1,1,$1+$1,$2,$3*
1,1,$1+$1,$4,$5*
1,1,$1+$1,$6,$7*
1,1,$1+$1,$8,$9*
0 Add four rect primitives between the rounded corners*
20,1,$1+$1,$2,$3,$4,$5,0*
20,1,$1+$1,$4,$5,$6,$7,0*
20,1,$1+$1,$6,$7,$8,$9,0*
20,1,$1+$1,$8,$9,$2,$3,0*%
%AMFreePoly0*
4,1,19,0.550000,-0.750000,0.000000,-0.750000,0.000000,-0.744911,-0.071157,-0.744911,-0.207708,-0.704816,-0.327430,-0.627875,-0.420627,-0.520320,-0.479746,-0.390866,-0.500000,-0.250000,-0.500000,0.250000,-0.479746,0.390866,-0.420627,0.520320,-0.327430,0.627875,-0.207708,0.704816,-0.071157,0.744911,0.000000,0.744911,0.000000,0.750000,0.550000,0.750000,0.550000,-0.750000,0.550000,-0.750000,
$1*%
%AMFreePoly1*
4,1,19,0.000000,0.744911,0.071157,0.744911,0.207708,0.704816,0.327430,0.627875,0.420627,0.520320,0.479746,0.390866,0.500000,0.250000,0.500000,-0.250000,0.479746,-0.390866,0.420627,-0.520320,0.327430,-0.627875,0.207708,-0.704816,0.071157,-0.744911,0.000000,-0.744911,0.000000,-0.750000,-0.550000,-0.750000,-0.550000,0.750000,0.000000,0.750000,0.000000,0.744911,0.000000,0.744911,
$1*%
%AMFreePoly2*
4,1,19,0.500000,-0.750000,0.000000,-0.750000,0.000000,-0.744911,-0.071157,-0.744911,-0.207708,-0.704816,-0.327430,-0.627875,-0.420627,-0.520320,-0.479746,-0.390866,-0.500000,-0.250000,-0.500000,0.250000,-0.479746,0.390866,-0.420627,0.520320,-0.327430,0.627875,-0.207708,0.704816,-0.071157,0.744911,0.000000,0.744911,0.000000,0.750000,0.500000,0.750000,0.500000,-0.750000,0.500000,-0.750000,
$1*%
%AMFreePoly3*
4,1,19,0.000000,0.744911,0.071157,0.744911,0.207708,0.704816,0.327430,0.627875,0.420627,0.520320,0.479746,0.390866,0.500000,0.250000,0.500000,-0.250000,0.479746,-0.390866,0.420627,-0.520320,0.327430,-0.627875,0.207708,-0.704816,0.071157,-0.744911,0.000000,-0.744911,0.000000,-0.750000,-0.500000,-0.750000,-0.500000,0.750000,0.000000,0.750000,0.000000,0.744911,0.000000,0.744911,
$1*%
G04 Aperture macros list end*
%ADD10R,1.700000X1.700000*%
%ADD11O,1.700000X1.700000*%
%ADD12O,0.890000X1.550000*%
%ADD13O,1.250000X0.950000*%
%ADD14RoundRect,0.250000X0.600000X0.750000X-0.600000X0.750000X-0.600000X-0.750000X0.600000X-0.750000X0*%
%ADD15O,1.700000X2.000000*%
%ADD16RoundRect,0.250000X-0.600000X-0.725000X0.600000X-0.725000X0.600000X0.725000X-0.600000X0.725000X0*%
%ADD17O,1.700000X1.950000*%
%ADD18RoundRect,0.250000X0.600000X0.725000X-0.600000X0.725000X-0.600000X-0.725000X0.600000X-0.725000X0*%
%ADD19RoundRect,0.250000X0.725000X-0.600000X0.725000X0.600000X-0.725000X0.600000X-0.725000X-0.600000X0*%
%ADD20O,1.950000X1.700000*%
%ADD21RoundRect,0.200000X0.275000X-0.200000X0.275000X0.200000X-0.275000X0.200000X-0.275000X-0.200000X0*%
%ADD22RoundRect,0.200000X0.200000X0.275000X-0.200000X0.275000X-0.200000X-0.275000X0.200000X-0.275000X0*%
%ADD23RoundRect,0.175000X0.175000X0.625000X-0.175000X0.625000X-0.175000X-0.625000X0.175000X-0.625000X0*%
%ADD24RoundRect,0.300000X0.300000X0.800000X-0.300000X0.800000X-0.300000X-0.800000X0.300000X-0.800000X0*%
%ADD25RoundRect,0.300000X0.300000X0.400000X-0.300000X0.400000X-0.300000X-0.400000X0.300000X-0.400000X0*%
%ADD26RoundRect,0.350000X0.450000X0.350000X-0.450000X0.350000X-0.450000X-0.350000X0.450000X-0.350000X0*%
%ADD27RoundRect,0.200000X-0.275000X0.200000X-0.275000X-0.200000X0.275000X-0.200000X0.275000X0.200000X0*%
%ADD28FreePoly0,180.000000*%
%ADD29R,1.000000X1.500000*%
%ADD30FreePoly1,180.000000*%
%ADD31R,1.500000X0.650000*%
%ADD32R,2.700000X3.600000*%
%ADD33RoundRect,0.200000X-0.200000X-0.275000X0.200000X-0.275000X0.200000X0.275000X-0.200000X0.275000X0*%
%ADD34RoundRect,0.225000X-0.225000X-0.250000X0.225000X-0.250000X0.225000X0.250000X-0.225000X0.250000X0*%
%ADD35RoundRect,0.225000X-0.250000X0.225000X-0.250000X-0.225000X0.250000X-0.225000X0.250000X0.225000X0*%
%ADD36FreePoly2,0.000000*%
%ADD37FreePoly3,0.000000*%
%ADD38FreePoly2,270.000000*%
%ADD39FreePoly3,270.000000*%
%ADD40R,2.500000X1.000000*%
%ADD41RoundRect,0.250000X-0.475000X0.250000X-0.475000X-0.250000X0.475000X-0.250000X0.475000X0.250000X0*%
%ADD42RoundRect,0.150000X0.512500X0.150000X-0.512500X0.150000X-0.512500X-0.150000X0.512500X-0.150000X0*%
%ADD43FreePoly0,0.000000*%
%ADD44FreePoly1,0.000000*%
%ADD45RoundRect,0.150000X-0.150000X0.587500X-0.150000X-0.587500X0.150000X-0.587500X0.150000X0.587500X0*%
%ADD46RoundRect,0.250000X0.650000X-1.000000X0.650000X1.000000X-0.650000X1.000000X-0.650000X-1.000000X0*%
%ADD47R,3.300000X3.500000*%
%ADD48C,10.200000*%
%ADD49R,1.250000X0.900000*%
%ADD50RoundRect,0.250000X-0.250000X-0.475000X0.250000X-0.475000X0.250000X0.475000X-0.250000X0.475000X0*%
%ADD51R,0.500000X0.800000*%
%ADD52RoundRect,0.250000X0.250000X0.475000X-0.250000X0.475000X-0.250000X-0.475000X0.250000X-0.475000X0*%
%ADD53RoundRect,0.150000X-0.512500X-0.150000X0.512500X-0.150000X0.512500X0.150000X-0.512500X0.150000X0*%
%ADD54RoundRect,0.250000X-0.650000X1.000000X-0.650000X-1.000000X0.650000X-1.000000X0.650000X1.000000X0*%
%ADD55R,3.500000X2.950000*%
%ADD56RoundRect,0.150000X0.587500X0.150000X-0.587500X0.150000X-0.587500X-0.150000X0.587500X-0.150000X0*%
G04 APERTURE END LIST*
D10*
X112400000Y-51925000D03*
D11*
X112400000Y-54465000D03*
D12*
X120700000Y-78300000D03*
D13*
X121700000Y-75600000D03*
X126700000Y-75600000D03*
D12*
X127700000Y-78300000D03*
D14*
X99750000Y-77125000D03*
D15*
X97250000Y-77125000D03*
D16*
X91700000Y-32900000D03*
D17*
X94200000Y-32900000D03*
X96700000Y-32900000D03*
X99200000Y-32900000D03*
D18*
X99400000Y-52100000D03*
D17*
X96900000Y-52100000D03*
X94400000Y-52100000D03*
D19*
X82725000Y-44750000D03*
D20*
X82725000Y-42250000D03*
X82725000Y-39750000D03*
D19*
X82625000Y-56150000D03*
D20*
X82625000Y-53650000D03*
X82625000Y-51150000D03*
D18*
X99600000Y-60000000D03*
D17*
X97100000Y-60000000D03*
X94600000Y-60000000D03*
X92100000Y-60000000D03*
D14*
X91250000Y-77125000D03*
D15*
X88750000Y-77125000D03*
D14*
X108050000Y-77225000D03*
D15*
X105550000Y-77225000D03*
D14*
X116450000Y-77225000D03*
D15*
X113950000Y-77225000D03*
D19*
X82600000Y-69700000D03*
D20*
X82600000Y-67200000D03*
X82600000Y-64700000D03*
X82600000Y-62200000D03*
D21*
X145120000Y-50965000D03*
X145120000Y-49315000D03*
X143620000Y-50965000D03*
X143620000Y-49315000D03*
D22*
X129325000Y-55200000D03*
X127675000Y-55200000D03*
D23*
X146680000Y-47000000D03*
X145580000Y-47000000D03*
X144480000Y-47000000D03*
X143380000Y-47000000D03*
X142280000Y-47000000D03*
X141180000Y-47000000D03*
X140080000Y-47000000D03*
X138980000Y-47000000D03*
X137880000Y-47000000D03*
D24*
X136680000Y-36900000D03*
D25*
X136680000Y-46500000D03*
D26*
X151280000Y-46500000D03*
D24*
X152180000Y-36900000D03*
D27*
X101400000Y-70475000D03*
X101400000Y-72125000D03*
D22*
X107325000Y-71000000D03*
X105675000Y-71000000D03*
D28*
X91900000Y-71700000D03*
D29*
X90600000Y-71700000D03*
D30*
X89300000Y-71700000D03*
D31*
X110800000Y-57695000D03*
X110800000Y-58965000D03*
X110800000Y-60235000D03*
X110800000Y-61505000D03*
X105400000Y-61505000D03*
X105400000Y-60235000D03*
X105400000Y-58965000D03*
X105400000Y-57695000D03*
D32*
X108100000Y-59600000D03*
D27*
X130600000Y-44775000D03*
X130600000Y-46425000D03*
D33*
X149675000Y-66150000D03*
X151325000Y-66150000D03*
D21*
X149700000Y-74225000D03*
X149700000Y-72575000D03*
D34*
X149725000Y-67650000D03*
X151275000Y-67650000D03*
D35*
X136120000Y-49865000D03*
X136120000Y-51415000D03*
D36*
X93950000Y-74500000D03*
D37*
X95250000Y-74500000D03*
D27*
X99800000Y-70475000D03*
X99800000Y-72125000D03*
D38*
X148620000Y-48990000D03*
D39*
X148620000Y-50290000D03*
D40*
X109400000Y-46000000D03*
X109400000Y-44000000D03*
X109400000Y-42000000D03*
X109400000Y-40000000D03*
X109400000Y-38000000D03*
X109400000Y-36000000D03*
X109400000Y-34000000D03*
X109400000Y-32000000D03*
X127600000Y-32000000D03*
X127600000Y-34000000D03*
X127600000Y-36000000D03*
X127600000Y-38000000D03*
X127600000Y-40000000D03*
X127600000Y-42000000D03*
X127600000Y-44000000D03*
X127600000Y-46000000D03*
D41*
X130800000Y-35200000D03*
X130800000Y-37100000D03*
D35*
X106500000Y-72525000D03*
X106500000Y-74075000D03*
D41*
X138120000Y-49690000D03*
X138120000Y-51590000D03*
D42*
X111500000Y-67450000D03*
X111500000Y-68400000D03*
X111500000Y-69350000D03*
X109225000Y-69350000D03*
X109225000Y-68400000D03*
X109225000Y-67450000D03*
D43*
X131600000Y-40200000D03*
D29*
X132900000Y-40200000D03*
D44*
X134200000Y-40200000D03*
D21*
X104900000Y-74125000D03*
X104900000Y-72475000D03*
X148100000Y-74225000D03*
X148100000Y-72575000D03*
D38*
X146000000Y-72850000D03*
D39*
X146000000Y-74150000D03*
D45*
X146150000Y-64312500D03*
X148050000Y-64312500D03*
X147100000Y-66187500D03*
D46*
X121062500Y-69800000D03*
X121062500Y-65800000D03*
D47*
X134500000Y-77300000D03*
X134500000Y-61500000D03*
D48*
X134500000Y-69400000D03*
D21*
X140620000Y-50965000D03*
X140620000Y-49315000D03*
D49*
X109475000Y-71150000D03*
X113325000Y-71150000D03*
X109475000Y-72650000D03*
X113325000Y-72650000D03*
D50*
X106250000Y-63435000D03*
X108150000Y-63435000D03*
D51*
X147950000Y-69250000D03*
X148850000Y-69250000D03*
X149750000Y-69250000D03*
X150650000Y-69250000D03*
X150650000Y-70450000D03*
X149750000Y-70450000D03*
X148850000Y-70450000D03*
X147950000Y-70450000D03*
D52*
X117450000Y-51400000D03*
X115550000Y-51400000D03*
D50*
X112850000Y-61100000D03*
X114750000Y-61100000D03*
D53*
X127862500Y-60250000D03*
X127862500Y-59300000D03*
X127862500Y-58350000D03*
X130137500Y-58350000D03*
X130137500Y-59300000D03*
X130137500Y-60250000D03*
D52*
X121650000Y-51400000D03*
X119750000Y-51400000D03*
D42*
X106937500Y-67450000D03*
X106937500Y-68400000D03*
X106937500Y-69350000D03*
X104662500Y-69350000D03*
X104662500Y-68400000D03*
X104662500Y-67450000D03*
D21*
X142120000Y-50965000D03*
X142120000Y-49315000D03*
D54*
X117400000Y-55500000D03*
X117400000Y-59500000D03*
D33*
X127700000Y-56800000D03*
X129350000Y-56800000D03*
D55*
X123000000Y-54575000D03*
X123000000Y-60025000D03*
D22*
X114625000Y-59000000D03*
X112975000Y-59000000D03*
X118325000Y-66500000D03*
X116675000Y-66500000D03*
D56*
X117837500Y-68150000D03*
X117837500Y-70050000D03*
X115962500Y-69100000D03*
M02*
