G04 #@! TF.GenerationSoftware,KiCad,Pcbnew,7.0.5-7.0.5~ubuntu20.04.1*
G04 #@! TF.CreationDate,2023-10-16T22:49:33-03:00*
G04 #@! TF.ProjectId,Iguana_V1,49677561-6e61-45f5-9631-2e6b69636164,rev?*
G04 #@! TF.SameCoordinates,Original*
G04 #@! TF.FileFunction,Soldermask,Top*
G04 #@! TF.FilePolarity,Negative*
%FSLAX46Y46*%
G04 Gerber Fmt 4.6, Leading zero omitted, Abs format (unit mm)*
G04 Created by KiCad (PCBNEW 7.0.5-7.0.5~ubuntu20.04.1) date 2023-10-16 22:49:33*
%MOMM*%
%LPD*%
G01*
G04 APERTURE LIST*
G04 Aperture macros list*
%AMRoundRect*
0 Rectangle with rounded corners*
0 $1 Rounding radius*
0 $2 $3 $4 $5 $6 $7 $8 $9 X,Y pos of 4 corners*
0 Add a 4 corners polygon primitive as box body*
4,1,4,$2,$3,$4,$5,$6,$7,$8,$9,$2,$3,0*
0 Add four circle primitives for the rounded corners*
1,1,$1+$1,$2,$3*
1,1,$1+$1,$4,$5*
1,1,$1+$1,$6,$7*
1,1,$1+$1,$8,$9*
0 Add four rect primitives between the rounded corners*
20,1,$1+$1,$2,$3,$4,$5,0*
20,1,$1+$1,$4,$5,$6,$7,0*
20,1,$1+$1,$6,$7,$8,$9,0*
20,1,$1+$1,$8,$9,$2,$3,0*%
%AMFreePoly0*
4,1,19,0.500000,-0.750000,0.000000,-0.750000,0.000000,-0.744911,-0.071157,-0.744911,-0.207708,-0.704816,-0.327430,-0.627875,-0.420627,-0.520320,-0.479746,-0.390866,-0.500000,-0.250000,-0.500000,0.250000,-0.479746,0.390866,-0.420627,0.520320,-0.327430,0.627875,-0.207708,0.704816,-0.071157,0.744911,0.000000,0.744911,0.000000,0.750000,0.500000,0.750000,0.500000,-0.750000,0.500000,-0.750000,
$1*%
%AMFreePoly1*
4,1,19,0.000000,0.744911,0.071157,0.744911,0.207708,0.704816,0.327430,0.627875,0.420627,0.520320,0.479746,0.390866,0.500000,0.250000,0.500000,-0.250000,0.479746,-0.390866,0.420627,-0.520320,0.327430,-0.627875,0.207708,-0.704816,0.071157,-0.744911,0.000000,-0.744911,0.000000,-0.750000,-0.500000,-0.750000,-0.500000,0.750000,0.000000,0.750000,0.000000,0.744911,0.000000,0.744911,
$1*%
G04 Aperture macros list end*
%ADD10RoundRect,0.218750X-0.218750X-0.256250X0.218750X-0.256250X0.218750X0.256250X-0.218750X0.256250X0*%
%ADD11RoundRect,0.200000X-0.200000X-0.275000X0.200000X-0.275000X0.200000X0.275000X-0.200000X0.275000X0*%
%ADD12RoundRect,0.150000X-0.150000X0.825000X-0.150000X-0.825000X0.150000X-0.825000X0.150000X0.825000X0*%
%ADD13RoundRect,0.250000X-1.000000X-0.650000X1.000000X-0.650000X1.000000X0.650000X-1.000000X0.650000X0*%
%ADD14RoundRect,0.200000X0.275000X-0.200000X0.275000X0.200000X-0.275000X0.200000X-0.275000X-0.200000X0*%
%ADD15RoundRect,0.243750X-0.243750X-0.456250X0.243750X-0.456250X0.243750X0.456250X-0.243750X0.456250X0*%
%ADD16RoundRect,0.150000X-0.587500X-0.150000X0.587500X-0.150000X0.587500X0.150000X-0.587500X0.150000X0*%
%ADD17R,1.700000X1.700000*%
%ADD18O,1.700000X1.700000*%
%ADD19R,0.400000X1.350000*%
%ADD20O,0.890000X1.550000*%
%ADD21R,1.200000X1.550000*%
%ADD22O,1.250000X0.950000*%
%ADD23R,1.500000X1.550000*%
%ADD24RoundRect,0.200000X-0.275000X0.200000X-0.275000X-0.200000X0.275000X-0.200000X0.275000X0.200000X0*%
%ADD25RoundRect,0.225000X-0.250000X0.225000X-0.250000X-0.225000X0.250000X-0.225000X0.250000X0.225000X0*%
%ADD26RoundRect,0.225000X-0.225000X-0.250000X0.225000X-0.250000X0.225000X0.250000X-0.225000X0.250000X0*%
%ADD27R,0.400000X1.500000*%
%ADD28RoundRect,0.200000X0.200000X0.275000X-0.200000X0.275000X-0.200000X-0.275000X0.200000X-0.275000X0*%
%ADD29RoundRect,0.150000X0.512500X0.150000X-0.512500X0.150000X-0.512500X-0.150000X0.512500X-0.150000X0*%
%ADD30RoundRect,0.250000X-0.250000X-0.475000X0.250000X-0.475000X0.250000X0.475000X-0.250000X0.475000X0*%
%ADD31RoundRect,0.250000X0.600000X0.750000X-0.600000X0.750000X-0.600000X-0.750000X0.600000X-0.750000X0*%
%ADD32O,1.700000X2.000000*%
%ADD33R,1.250000X0.900000*%
%ADD34RoundRect,0.225000X0.250000X-0.225000X0.250000X0.225000X-0.250000X0.225000X-0.250000X-0.225000X0*%
%ADD35R,0.900000X1.500000*%
%ADD36R,1.500000X0.900000*%
%ADD37R,4.200000X4.200000*%
%ADD38RoundRect,0.218750X0.256250X-0.218750X0.256250X0.218750X-0.256250X0.218750X-0.256250X-0.218750X0*%
%ADD39RoundRect,0.250000X-0.600000X-0.725000X0.600000X-0.725000X0.600000X0.725000X-0.600000X0.725000X0*%
%ADD40O,1.700000X1.950000*%
%ADD41RoundRect,0.250000X0.600000X0.725000X-0.600000X0.725000X-0.600000X-0.725000X0.600000X-0.725000X0*%
%ADD42RoundRect,0.250000X0.725000X-0.600000X0.725000X0.600000X-0.725000X0.600000X-0.725000X-0.600000X0*%
%ADD43O,1.950000X1.700000*%
%ADD44RoundRect,0.250000X0.625000X-0.375000X0.625000X0.375000X-0.625000X0.375000X-0.625000X-0.375000X0*%
%ADD45RoundRect,0.250000X0.475000X-0.250000X0.475000X0.250000X-0.475000X0.250000X-0.475000X-0.250000X0*%
%ADD46FreePoly0,180.000000*%
%ADD47FreePoly1,180.000000*%
%ADD48R,1.000000X1.000000*%
%ADD49R,2.200000X1.050000*%
%ADD50RoundRect,0.218750X0.218750X0.256250X-0.218750X0.256250X-0.218750X-0.256250X0.218750X-0.256250X0*%
%ADD51RoundRect,0.150000X-0.150000X0.587500X-0.150000X-0.587500X0.150000X-0.587500X0.150000X0.587500X0*%
%ADD52RoundRect,0.150000X0.675000X0.150000X-0.675000X0.150000X-0.675000X-0.150000X0.675000X-0.150000X0*%
G04 APERTURE END LIST*
D10*
X107316310Y-61200000D03*
X108891310Y-61200000D03*
X131637500Y-31400000D03*
X133212500Y-31400000D03*
D11*
X89812500Y-69800000D03*
X91462500Y-69800000D03*
D12*
X138045000Y-67125000D03*
X136775000Y-67125000D03*
X135505000Y-67125000D03*
X134235000Y-67125000D03*
X132965000Y-67125000D03*
X131695000Y-67125000D03*
X130425000Y-67125000D03*
X129155000Y-67125000D03*
X129155000Y-72075000D03*
X130425000Y-72075000D03*
X131695000Y-72075000D03*
X132965000Y-72075000D03*
X134235000Y-72075000D03*
X135505000Y-72075000D03*
X136775000Y-72075000D03*
X138045000Y-72075000D03*
D13*
X115300000Y-66000000D03*
X119300000Y-66000000D03*
D14*
X144000000Y-69775000D03*
X144000000Y-68125000D03*
D15*
X91162500Y-71700000D03*
X93037500Y-71700000D03*
D16*
X92700000Y-66100000D03*
X92700000Y-68000000D03*
X94575000Y-67050000D03*
D17*
X112400000Y-51925000D03*
D18*
X112400000Y-54465000D03*
D19*
X122900000Y-75600000D03*
X123550000Y-75600000D03*
X124200000Y-75600000D03*
X124850000Y-75600000D03*
X125500000Y-75600000D03*
D20*
X120700000Y-78300000D03*
D21*
X121300000Y-78300000D03*
D22*
X121700000Y-75600000D03*
D23*
X123200000Y-78300000D03*
X125200000Y-78300000D03*
D22*
X126700000Y-75600000D03*
D21*
X127100000Y-78300000D03*
D20*
X127700000Y-78300000D03*
D24*
X89100000Y-41125000D03*
X89100000Y-42775000D03*
D25*
X140600000Y-38525000D03*
X140600000Y-40075000D03*
D14*
X149450000Y-69575000D03*
X149450000Y-67925000D03*
D26*
X150725000Y-40000000D03*
X152275000Y-40000000D03*
D27*
X147750000Y-67390000D03*
X147100000Y-67390000D03*
X146450000Y-67390000D03*
X146450000Y-70050000D03*
X147100000Y-70050000D03*
X147750000Y-70050000D03*
D28*
X102825000Y-43500000D03*
X101175000Y-43500000D03*
D29*
X141175000Y-36700000D03*
X141175000Y-35750000D03*
X141175000Y-34800000D03*
X138900000Y-34800000D03*
X138900000Y-36700000D03*
D30*
X150550000Y-42300000D03*
X152450000Y-42300000D03*
D10*
X107316310Y-59600000D03*
X108891310Y-59600000D03*
X140012500Y-31325000D03*
X141587500Y-31325000D03*
D29*
X148537500Y-36650000D03*
X148537500Y-35700000D03*
X148537500Y-34750000D03*
X146262500Y-34750000D03*
X146262500Y-36650000D03*
X132937500Y-36750000D03*
X132937500Y-35800000D03*
X132937500Y-34850000D03*
X130662500Y-34850000D03*
X130662500Y-36750000D03*
D25*
X132300000Y-38625000D03*
X132300000Y-40175000D03*
D31*
X99750000Y-77125000D03*
D32*
X97250000Y-77125000D03*
D28*
X133225000Y-33000000D03*
X131575000Y-33000000D03*
D33*
X141775000Y-78750000D03*
X145625000Y-78750000D03*
X141775000Y-77250000D03*
X145625000Y-77250000D03*
D14*
X116250000Y-57625000D03*
X116250000Y-55975000D03*
D25*
X147400000Y-38525000D03*
X147400000Y-40075000D03*
D10*
X129712500Y-58300000D03*
X131287500Y-58300000D03*
D34*
X139700000Y-72075000D03*
X139700000Y-70525000D03*
D35*
X152400000Y-45450000D03*
X151130000Y-45450000D03*
X149860000Y-45450000D03*
X148590000Y-45450000D03*
X147320000Y-45450000D03*
X146050000Y-45450000D03*
X144780000Y-45450000D03*
X143510000Y-45450000D03*
X142240000Y-45450000D03*
X140970000Y-45450000D03*
X139700000Y-45450000D03*
X138430000Y-45450000D03*
X137160000Y-45450000D03*
X135890000Y-45450000D03*
D36*
X134640000Y-48490000D03*
X134640000Y-49760000D03*
X134640000Y-51030000D03*
X134640000Y-52300000D03*
X134640000Y-53570000D03*
X134640000Y-54840000D03*
X134640000Y-56110000D03*
X134640000Y-57380000D03*
X134640000Y-58650000D03*
X134640000Y-59920000D03*
D35*
X135890000Y-62950000D03*
X137160000Y-62950000D03*
X138430000Y-62950000D03*
X139700000Y-62950000D03*
X140970000Y-62950000D03*
X142240000Y-62950000D03*
X143510000Y-62950000D03*
X144780000Y-62950000D03*
X146050000Y-62950000D03*
X147320000Y-62950000D03*
X148590000Y-62950000D03*
X149860000Y-62950000D03*
X151130000Y-62950000D03*
X152400000Y-62950000D03*
D37*
X145060000Y-53520000D03*
D38*
X118100000Y-57600000D03*
X118100000Y-56025000D03*
D24*
X90537500Y-66175000D03*
X90537500Y-67825000D03*
D39*
X91700000Y-32900000D03*
D40*
X94200000Y-32900000D03*
X96700000Y-32900000D03*
X99200000Y-32900000D03*
D41*
X99400000Y-52100000D03*
D40*
X96900000Y-52100000D03*
X94400000Y-52100000D03*
D42*
X82725000Y-44750000D03*
D43*
X82725000Y-42250000D03*
X82725000Y-39750000D03*
D28*
X145750000Y-72700000D03*
X144100000Y-72700000D03*
D25*
X130700000Y-38625000D03*
X130700000Y-40175000D03*
X145800000Y-38525000D03*
X145800000Y-40075000D03*
D28*
X131200000Y-60000000D03*
X129550000Y-60000000D03*
D42*
X82625000Y-56150000D03*
D43*
X82625000Y-53650000D03*
X82625000Y-51150000D03*
D44*
X120900000Y-71900000D03*
X120900000Y-69100000D03*
D41*
X99600000Y-60000000D03*
D40*
X97100000Y-60000000D03*
X94600000Y-60000000D03*
X92100000Y-60000000D03*
D10*
X147812500Y-31200000D03*
X149387500Y-31200000D03*
D11*
X107178810Y-58000000D03*
X108828810Y-58000000D03*
D28*
X96325000Y-37600000D03*
X94675000Y-37600000D03*
D25*
X139000000Y-38525000D03*
X139000000Y-40075000D03*
D31*
X91250000Y-77125000D03*
D32*
X88750000Y-77125000D03*
D31*
X108050000Y-77225000D03*
D32*
X105550000Y-77225000D03*
D45*
X114800000Y-70650000D03*
X114800000Y-68750000D03*
D28*
X102825000Y-39000000D03*
X101175000Y-39000000D03*
D26*
X144150000Y-74600000D03*
X145700000Y-74600000D03*
D46*
X116450000Y-63000000D03*
D47*
X115150000Y-63000000D03*
D31*
X116450000Y-77225000D03*
D32*
X113950000Y-77225000D03*
D24*
X121800000Y-65475000D03*
X121800000Y-67125000D03*
D28*
X102825000Y-42000000D03*
X101175000Y-42000000D03*
D36*
X104800000Y-32900000D03*
X104800000Y-36200000D03*
X109700000Y-36200000D03*
X109700000Y-32900000D03*
D48*
X121750000Y-34200000D03*
D49*
X120250000Y-35675000D03*
D48*
X118750000Y-34200000D03*
D49*
X120250000Y-32725000D03*
D28*
X102825000Y-40500000D03*
X101175000Y-40500000D03*
D11*
X147675000Y-32900000D03*
X149325000Y-32900000D03*
D26*
X150800000Y-74600000D03*
X152350000Y-74600000D03*
D11*
X139975000Y-32900000D03*
X141625000Y-32900000D03*
D33*
X148775000Y-78750000D03*
X152625000Y-78750000D03*
X148775000Y-77250000D03*
X152625000Y-77250000D03*
D42*
X82600000Y-69700000D03*
D43*
X82600000Y-67200000D03*
X82600000Y-64700000D03*
X82600000Y-62200000D03*
D50*
X94425000Y-69800000D03*
X92850000Y-69800000D03*
D51*
X118650000Y-68962500D03*
X116750000Y-68962500D03*
X117700000Y-70837500D03*
D28*
X152500000Y-72700000D03*
X150850000Y-72700000D03*
D52*
X98725000Y-43305000D03*
X98725000Y-42035000D03*
X98725000Y-40765000D03*
X98725000Y-39495000D03*
X93475000Y-39495000D03*
X93475000Y-40765000D03*
X93475000Y-42035000D03*
X93475000Y-43305000D03*
M02*
