M48
; DRILL file {KiCad 7.0.5-7.0.5~ubuntu20.04.1} date lun 16 oct 2023 22:49:48
; FORMAT={-:-/ absolute / metric / decimal}
; #@! TF.CreationDate,2023-10-16T22:49:48-03:00
; #@! TF.GenerationSoftware,Kicad,Pcbnew,7.0.5-7.0.5~ubuntu20.04.1
; #@! TF.FileFunction,Plated,1,2,PTH
FMAT,2
METRIC
; #@! TA.AperFunction,Plated,PTH,ViaDrill
T1C0.300
; #@! TA.AperFunction,Plated,PTH,ViaDrill
T2C0.400
; #@! TA.AperFunction,Plated,PTH,ComponentDrill
T3C0.500
; #@! TA.AperFunction,Plated,PTH,ComponentDrill
T4C0.550
; #@! TA.AperFunction,Plated,PTH,ComponentDrill
T5C0.950
; #@! TA.AperFunction,Plated,PTH,ComponentDrill
T6C1.000
; #@! TA.AperFunction,Plated,PTH,ViaDrill
T7C3.200
%
G90
G05
T1
X82.0Y-36.5
X84.5Y-67.65
X85.5Y-74.3
X86.29Y-45.63
X86.65Y-51.8
X87.131Y-31.452
X87.2Y-66.35
X87.35Y-48.95
X87.4Y-60.6
X87.4Y-75.55
X88.35Y-43.7
X89.0Y-61.9
X89.55Y-46.7
X91.1Y-30.9
X91.3Y-39.6
X91.3Y-45.1
X91.4Y-48.65
X91.8Y-67.3
X92.38Y-36.071
X93.149Y-38.005
X93.3Y-63.1
X94.0Y-47.15
X94.073Y-35.6
X94.15Y-77.65
X94.3Y-54.15
X94.55Y-72.9
X95.55Y-41.75
X96.5Y-46.8
X96.75Y-67.25
X96.85Y-57.3
X97.143Y-40.748
X97.35Y-45.1
X98.6Y-35.35
X99.3Y-74.75
X99.45Y-54.35
X99.45Y-63.95
X99.8Y-38.05
X100.05Y-68.55
X100.35Y-47.05
X100.95Y-57.15
X101.45Y-33.5
X102.05Y-32.25
X102.55Y-74.0
X102.75Y-36.55
X103.5Y-32.95
X103.8Y-59.0
X103.8Y-60.3
X103.9Y-57.7
X104.3Y-44.45
X104.35Y-37.65
X104.5Y-52.6
X106.0Y-50.95
X106.3Y-54.75
X107.35Y-39.95
X107.35Y-43.25
X107.4Y-36.5
X107.9Y-47.45
X108.45Y-70.4
X109.6Y-63.5
X110.25Y-53.15
X110.35Y-47.5
X110.95Y-74.7
X111.6Y-62.5
X111.8Y-70.75
X112.45Y-48.3
X112.85Y-33.2
X113.15Y-68.2
X113.4Y-38.9
X113.4Y-43.95
X113.45Y-57.15
X113.65Y-64.25
X114.6Y-46.25
X114.643Y-53.176
X115.0Y-48.15
X115.15Y-55.55
X115.75Y-61.15
X115.85Y-47.4
X116.5Y-44.55
X116.6Y-33.05
X117.136Y-38.929
X117.6Y-62.6
X117.8Y-47.2
X118.45Y-32.6
X118.5Y-76.0
X118.9Y-71.25
X118.9Y-78.95
X118.942Y-53.197
X119.65Y-60.85
X119.792Y-54.591
X119.8Y-67.9
X120.15Y-58.4
X120.2Y-46.75
X121.05Y-63.45
X122.1Y-32.7
X122.1Y-36.15
X122.55Y-68.1
X122.8Y-39.6
X122.95Y-33.9
X123.15Y-71.65
X123.55Y-52.1
X123.75Y-42.55
X124.7Y-43.578
X124.8Y-40.35
X124.95Y-42.4
X125.15Y-45.35
X126.2Y-63.3
X126.25Y-58.55
X126.35Y-61.2
X126.55Y-68.15
X127.05Y-74.05
X127.85Y-49.35
X128.45Y-76.55
X129.275Y-36.925
X129.55Y-41.75
X129.55Y-45.9
X129.7Y-33.8
X129.9Y-31.9
X130.0Y-49.35
X130.4Y-56.0
X131.55Y-64.15
X131.85Y-45.25
X132.35Y-74.75
X132.65Y-57.4
X132.7Y-49.127
X133.15Y-42.096
X133.15Y-46.05
X133.15Y-50.55
X134.2Y-36.7
X134.45Y-38.3
X134.5Y-45.15
X134.8Y-30.95
X135.8Y-34.9
X136.0Y-41.3
X136.1Y-30.7
X136.6Y-48.95
X136.85Y-52.575
X137.4Y-35.0
X137.75Y-61.3
X138.3Y-75.85
X138.325Y-41.575
X138.55Y-61.15
X138.8Y-78.4
X139.0Y-72.95
X139.05Y-60.25
X139.3Y-48.75
X139.325Y-56.175
X139.408Y-49.908
X139.65Y-64.65
X140.25Y-60.2
X140.4Y-53.8
X140.4Y-67.0
X140.45Y-44.05
X140.5Y-70.0
X141.3Y-65.6
X141.7Y-40.95
X142.3Y-37.1
X142.331Y-34.469
X142.45Y-75.45
X142.5Y-55.35
X142.5Y-64.8
X142.65Y-52.9
X142.7Y-59.7
X142.874Y-60.975
X143.25Y-43.8
X143.3Y-71.4
X143.8Y-79.0
X144.5Y-36.35
X144.7Y-58.2
X144.8Y-67.2
X145.05Y-75.5
X145.15Y-43.9
X145.177Y-71.973
X145.3Y-37.4
X145.3Y-70.674
X145.35Y-68.346
X145.667Y-61.367
X146.2Y-50.6
X146.5Y-41.25
X147.0Y-60.5
X147.0Y-76.126
X147.65Y-51.85
X147.95Y-47.45
X148.2Y-56.6
X148.3Y-41.3
X149.35Y-38.4
X149.6Y-75.8
X149.9Y-60.0
X150.0Y-36.5
X150.1Y-49.95
X150.35Y-51.65
X150.7Y-64.9
X150.7Y-79.1
X151.05Y-68.25
X151.2Y-69.9
X151.55Y-34.85
X151.65Y-59.35
X152.0Y-64.65
X152.45Y-49.3
X152.65Y-32.5
X152.65Y-43.85
X152.75Y-47.7
X152.95Y-76.1
X153.0Y-38.6
X153.55Y-75.15
T2
X91.7Y-42.95
X103.1Y-44.55
T5
X82.6Y-62.2
X82.6Y-64.7
X82.6Y-67.2
X82.6Y-69.7
X82.625Y-51.15
X82.625Y-53.65
X82.625Y-56.15
X82.725Y-39.75
X82.725Y-42.25
X82.725Y-44.75
X91.7Y-32.9
X92.1Y-60.0
X94.2Y-32.9
X94.4Y-52.1
X94.6Y-60.0
X96.7Y-32.9
X96.9Y-52.1
X97.1Y-60.0
X99.2Y-32.9
X99.4Y-52.1
X99.6Y-60.0
T6
X88.75Y-77.125
X91.25Y-77.125
X97.25Y-77.125
X99.75Y-77.125
X105.55Y-77.225
X108.05Y-77.225
X112.4Y-51.925
X112.4Y-54.465
X113.95Y-77.225
X116.45Y-77.225
T7
X83.0Y-32.9
X83.0Y-77.0
X157.0Y-33.0
X157.0Y-77.0
T3
X120.7Y-77.975G85X120.7Y-78.625
G05
X127.7Y-77.975G85X127.7Y-78.625
G05
T4
X121.55Y-75.6G85X121.85Y-75.6
G05
X126.55Y-75.6G85X126.85Y-75.6
G05
T0
M30
